<svg xmlns="http://www.w3.org/2000/svg" viewBox="0 0 960 640" role="img" aria-labelledby="title desc">
  <title id="title">Kizuna Pet Union logo</title>
  <desc id="desc">Kizuna Pet Union logo with a cat outline and brand wordmark.</desc>
  <defs>
    <linearGradient id="bg" x1="0" y1="0" x2="1" y2="1">
      <stop offset="0" stop-color="#b9e7e3"/>
      <stop offset="1" stop-color="#8fd1cd"/>
    </linearGradient>
    <filter id="shadow" x="-20%" y="-20%" width="140%" height="140%">
      <feDropShadow dx="0" dy="10" stdDeviation="8" flood-color="#132536" flood-opacity="0.18"/>
    </filter>
  </defs>
  <rect width="960" height="640" rx="36" fill="url(#bg)"/>
  <g fill="none" stroke="#142536" stroke-linecap="round" stroke-linejoin="round">
    <path d="M342 325c4-72 34-128 78-160 15-58 51-86 65-96 12 24 14 47 11 68 29 4 52 14 70 31 19-8 37-19 52-34-2 27-8 50-18 70 22 29 27 67 14 101" stroke-width="9"/>
    <path d="M438 180c18-38 45-69 62-82" stroke-width="4"/>
    <path d="M563 208c33 6 61 26 78 54" stroke-width="8"/>
    <path d="M514 225c48-7 91 2 130 29" stroke-width="4"/>
    <path d="M510 252c49-1 92 11 128 36" stroke-width="4"/>
    <path d="M510 279c42 5 78 18 107 40" stroke-width="4"/>
    <path d="M562 196c8 3 16 5 24 5" stroke-width="7"/>
    <path d="M565 194c8 2 15 7 20 14" stroke="#1fb9bd" stroke-width="4"/>
    <path d="M352 332c-54 38-82 84-98 144" stroke-width="8"/>
    <path d="M594 313c-24 48 11 86 48 128 27 31 38 68 24 111" stroke-width="8"/>
    <path d="M290 265c42-124 166-199 292-166 28 7 55 19 80 35" stroke="#ffffff" stroke-width="10" opacity="0.95"/>
    <path d="M289 265c-21 66-18 137 12 199" stroke="#ffffff" stroke-width="10" opacity="0.95"/>
  </g>
  <g filter="url(#shadow)">
    <text x="480" y="425" text-anchor="middle" font-family="Georgia, 'Times New Roman', serif" font-size="136" font-weight="700" fill="#ffffff" stroke="#142536" stroke-width="14" paint-order="stroke fill">Kizuna</text>
    <text x="480" y="425" text-anchor="middle" font-family="Georgia, 'Times New Roman', serif" font-size="136" font-weight="700" fill="#ffffff">Kizuna</text>
  </g>
  <g fill="#142536" text-anchor="middle" font-family="Georgia, 'Times New Roman', serif">
    <line x1="312" y1="493" x2="402" y2="493" stroke="#ffffff" stroke-width="4"/>
    <line x1="558" y1="493" x2="648" y2="493" stroke="#ffffff" stroke-width="4"/>
    <text x="480" y="512" font-size="48">Pet Union</text>
  </g>
  <text x="480" y="570" text-anchor="middle" font-family="Arial, Helvetica, sans-serif" font-size="22" letter-spacing="8" fill="#142536">CONNECTING PET BUSINESSES</text>
</svg>
